<mxfile host="65bd71144e">
    <diagram id="SbDoswk6Quu5Co4p2oR-" name="PÃ¡gina-1">
        <mxGraphModel dx="662" dy="513" grid="1" gridSize="10" guides="1" tooltips="1" connect="1" arrows="1" fold="1" page="1" pageScale="1" pageWidth="827" pageHeight="1169" math="0" shadow="0">
            <root>
                <mxCell id="0"/>
                <mxCell id="1" parent="0"/>
                <mxCell id="4" value="" style="edgeStyle=none;html=1;" edge="1" parent="1" source="2" target="3">
                    <mxGeometry relative="1" as="geometry"/>
                </mxCell>
                <mxCell id="2" value="INICIO" style="ellipse;whiteSpace=wrap;html=1;fillColor=#60a917;fontColor=#ffffff;strokeColor=#2D7600;" vertex="1" parent="1">
                    <mxGeometry x="354" width="120" height="80" as="geometry"/>
                </mxCell>
                <mxCell id="6" value="" style="edgeStyle=none;html=1;" edge="1" parent="1" source="3" target="5">
                    <mxGeometry relative="1" as="geometry"/>
                </mxCell>
                <mxCell id="3" value="a,b,c" style="shape=parallelogram;perimeter=parallelogramPerimeter;whiteSpace=wrap;html=1;fixedSize=1;fillColor=#008a00;fontColor=#ffffff;strokeColor=#005700;" vertex="1" parent="1">
                    <mxGeometry x="354" y="130" width="120" height="60" as="geometry"/>
                </mxCell>
                <mxCell id="8" value="" style="edgeStyle=none;html=1;" edge="1" parent="1" source="5" target="7">
                    <mxGeometry relative="1" as="geometry">
                        <Array as="points">
                            <mxPoint x="680" y="290"/>
                        </Array>
                    </mxGeometry>
                </mxCell>
                <mxCell id="10" value="" style="edgeStyle=none;html=1;" edge="1" parent="1" source="5" target="9">
                    <mxGeometry relative="1" as="geometry">
                        <Array as="points">
                            <mxPoint x="220" y="290"/>
                        </Array>
                    </mxGeometry>
                </mxCell>
                <mxCell id="5" value="a&amp;gt;b" style="rhombus;whiteSpace=wrap;html=1;fillColor=#1ba1e2;fontColor=#ffffff;strokeColor=#006EAF;" vertex="1" parent="1">
                    <mxGeometry x="374" y="250" width="80" height="80" as="geometry"/>
                </mxCell>
                <mxCell id="12" value="" style="edgeStyle=none;html=1;" edge="1" parent="1" source="7" target="11">
                    <mxGeometry relative="1" as="geometry">
                        <Array as="points">
                            <mxPoint x="560" y="390"/>
                        </Array>
                    </mxGeometry>
                </mxCell>
                <mxCell id="14" value="" style="edgeStyle=none;html=1;entryX=0.5;entryY=0;entryDx=0;entryDy=0;" edge="1" parent="1" source="7" target="46">
                    <mxGeometry relative="1" as="geometry">
                        <mxPoint x="768.125" y="440" as="targetPoint"/>
                        <Array as="points">
                            <mxPoint x="767" y="390"/>
                        </Array>
                    </mxGeometry>
                </mxCell>
                <mxCell id="7" value="b&amp;gt;c" style="rhombus;whiteSpace=wrap;html=1;fillColor=#1ba1e2;fontColor=#ffffff;strokeColor=#006EAF;" vertex="1" parent="1">
                    <mxGeometry x="640" y="350" width="80" height="80" as="geometry"/>
                </mxCell>
                <mxCell id="23" value="" style="edgeStyle=none;html=1;entryX=0.5;entryY=0;entryDx=0;entryDy=0;" edge="1" parent="1" source="9" target="45">
                    <mxGeometry relative="1" as="geometry">
                        <mxPoint x="340" y="440" as="targetPoint"/>
                        <Array as="points">
                            <mxPoint x="340" y="390"/>
                        </Array>
                    </mxGeometry>
                </mxCell>
                <mxCell id="25" value="" style="edgeStyle=none;html=1;" edge="1" parent="1" source="9" target="24">
                    <mxGeometry relative="1" as="geometry">
                        <Array as="points">
                            <mxPoint x="150" y="390"/>
                        </Array>
                    </mxGeometry>
                </mxCell>
                <mxCell id="9" value="a&amp;gt;c" style="rhombus;whiteSpace=wrap;html=1;fillColor=#1ba1e2;fontColor=#ffffff;strokeColor=#006EAF;" vertex="1" parent="1">
                    <mxGeometry x="180" y="350" width="80" height="80" as="geometry"/>
                </mxCell>
                <mxCell id="16" style="edgeStyle=none;html=1;entryX=0.5;entryY=0;entryDx=0;entryDy=0;" edge="1" parent="1" source="11" target="44">
                    <mxGeometry relative="1" as="geometry">
                        <mxPoint x="660" y="555" as="targetPoint"/>
                        <Array as="points">
                            <mxPoint x="660" y="470"/>
                        </Array>
                    </mxGeometry>
                </mxCell>
                <mxCell id="19" value="" style="edgeStyle=none;html=1;" edge="1" parent="1" source="11" target="43">
                    <mxGeometry relative="1" as="geometry">
                        <mxPoint x="460" y="555" as="targetPoint"/>
                        <Array as="points">
                            <mxPoint x="460" y="470"/>
                        </Array>
                    </mxGeometry>
                </mxCell>
                <mxCell id="11" value="c&amp;gt;a" style="rhombus;whiteSpace=wrap;html=1;fillColor=#1ba1e2;fontColor=#ffffff;strokeColor=#006EAF;" vertex="1" parent="1">
                    <mxGeometry x="520" y="430" width="80" height="80" as="geometry"/>
                </mxCell>
                <mxCell id="27" value="" style="edgeStyle=none;html=1;entryX=0.5;entryY=0;entryDx=0;entryDy=0;" edge="1" parent="1" source="24" target="42">
                    <mxGeometry relative="1" as="geometry">
                        <mxPoint x="240" y="615" as="targetPoint"/>
                        <Array as="points">
                            <mxPoint x="240" y="530"/>
                        </Array>
                    </mxGeometry>
                </mxCell>
                <mxCell id="29" value="" style="edgeStyle=none;html=1;entryX=0.5;entryY=0;entryDx=0;entryDy=0;" edge="1" parent="1" source="24" target="41">
                    <mxGeometry relative="1" as="geometry">
                        <mxPoint x="60" y="615" as="targetPoint"/>
                        <Array as="points">
                            <mxPoint x="60" y="530"/>
                        </Array>
                    </mxGeometry>
                </mxCell>
                <mxCell id="24" value="c&amp;gt;b" style="rhombus;whiteSpace=wrap;html=1;fillColor=#1ba1e2;fontColor=#ffffff;strokeColor=#006EAF;" vertex="1" parent="1">
                    <mxGeometry x="110" y="490" width="80" height="80" as="geometry"/>
                </mxCell>
                <mxCell id="30" value="&lt;font color=&quot;#00ff00&quot;&gt;SI&lt;/font&gt;" style="text;html=1;strokeColor=none;fillColor=none;align=center;verticalAlign=middle;whiteSpace=wrap;rounded=0;" vertex="1" parent="1">
                    <mxGeometry x="460" y="250" width="60" height="30" as="geometry"/>
                </mxCell>
                <mxCell id="32" value="&lt;font color=&quot;#ff0000&quot;&gt;NO&lt;/font&gt;" style="text;html=1;strokeColor=none;fillColor=none;align=center;verticalAlign=middle;whiteSpace=wrap;rounded=0;" vertex="1" parent="1">
                    <mxGeometry x="310" y="250" width="60" height="30" as="geometry"/>
                </mxCell>
                <mxCell id="33" value="&lt;font color=&quot;#00ff00&quot;&gt;SI&lt;/font&gt;" style="text;html=1;strokeColor=none;fillColor=none;align=center;verticalAlign=middle;whiteSpace=wrap;rounded=0;" vertex="1" parent="1">
                    <mxGeometry x="720" y="360" width="60" height="30" as="geometry"/>
                </mxCell>
                <mxCell id="34" value="&lt;font color=&quot;#ff0000&quot;&gt;NO&lt;/font&gt;" style="text;html=1;strokeColor=none;fillColor=none;align=center;verticalAlign=middle;whiteSpace=wrap;rounded=0;" vertex="1" parent="1">
                    <mxGeometry x="590" y="360" width="60" height="30" as="geometry"/>
                </mxCell>
                <mxCell id="35" value="&lt;font color=&quot;#ff0000&quot;&gt;NO&lt;/font&gt;" style="text;html=1;strokeColor=none;fillColor=none;align=center;verticalAlign=middle;whiteSpace=wrap;rounded=0;" vertex="1" parent="1">
                    <mxGeometry x="460" y="440" width="60" height="30" as="geometry"/>
                </mxCell>
                <mxCell id="36" value="&lt;font color=&quot;#00ff00&quot;&gt;SI&lt;/font&gt;" style="text;html=1;strokeColor=none;fillColor=none;align=center;verticalAlign=middle;whiteSpace=wrap;rounded=0;" vertex="1" parent="1">
                    <mxGeometry x="600" y="430" width="60" height="30" as="geometry"/>
                </mxCell>
                <mxCell id="37" value="&lt;font color=&quot;#00ff00&quot;&gt;SI&lt;/font&gt;" style="text;html=1;strokeColor=none;fillColor=none;align=center;verticalAlign=middle;whiteSpace=wrap;rounded=0;" vertex="1" parent="1">
                    <mxGeometry x="250" y="360" width="60" height="30" as="geometry"/>
                </mxCell>
                <mxCell id="38" value="&lt;font color=&quot;#ff0000&quot;&gt;NO&lt;/font&gt;" style="text;html=1;strokeColor=none;fillColor=none;align=center;verticalAlign=middle;whiteSpace=wrap;rounded=0;" vertex="1" parent="1">
                    <mxGeometry x="120" y="360" width="60" height="30" as="geometry"/>
                </mxCell>
                <mxCell id="39" value="&lt;font color=&quot;#00ff00&quot;&gt;SI&lt;/font&gt;" style="text;html=1;strokeColor=none;fillColor=none;align=center;verticalAlign=middle;whiteSpace=wrap;rounded=0;" vertex="1" parent="1">
                    <mxGeometry x="190" y="500" width="60" height="30" as="geometry"/>
                </mxCell>
                <mxCell id="40" value="&lt;font color=&quot;#ff0000&quot;&gt;NO&lt;/font&gt;" style="text;html=1;strokeColor=none;fillColor=none;align=center;verticalAlign=middle;whiteSpace=wrap;rounded=0;" vertex="1" parent="1">
                    <mxGeometry x="60" y="500" width="60" height="30" as="geometry"/>
                </mxCell>
                <mxCell id="41" value="&lt;font color=&quot;#ffffff&quot;&gt;a,c,b&lt;/font&gt;" style="shape=document;whiteSpace=wrap;html=1;boundedLbl=1;fontColor=#ffffff;fillColor=#e51400;strokeColor=#B20000;" vertex="1" parent="1">
                    <mxGeometry y="615" width="120" height="80" as="geometry"/>
                </mxCell>
                <mxCell id="42" value="a,b,c" style="shape=document;whiteSpace=wrap;html=1;boundedLbl=1;fontColor=#000000;fillColor=#e3c800;strokeColor=#B09500;" vertex="1" parent="1">
                    <mxGeometry x="180" y="615" width="120" height="80" as="geometry"/>
                </mxCell>
                <mxCell id="43" value="b,c,a" style="shape=document;whiteSpace=wrap;html=1;boundedLbl=1;fontColor=#ffffff;fillColor=#e51400;strokeColor=#B20000;" vertex="1" parent="1">
                    <mxGeometry x="400" y="560" width="120" height="80" as="geometry"/>
                </mxCell>
                <mxCell id="44" value="b,a,c" style="shape=document;whiteSpace=wrap;html=1;boundedLbl=1;fontColor=#000000;fillColor=#e3c800;strokeColor=#B09500;" vertex="1" parent="1">
                    <mxGeometry x="600" y="560" width="120" height="80" as="geometry"/>
                </mxCell>
                <mxCell id="45" value="c,a,b" style="shape=document;whiteSpace=wrap;html=1;boundedLbl=1;fontColor=#000000;fillColor=#e3c800;strokeColor=#B09500;" vertex="1" parent="1">
                    <mxGeometry x="280" y="440" width="120" height="80" as="geometry"/>
                </mxCell>
                <mxCell id="46" value="c,b,a" style="shape=document;whiteSpace=wrap;html=1;boundedLbl=1;fontColor=#000000;fillColor=#e3c800;strokeColor=#B09500;" vertex="1" parent="1">
                    <mxGeometry x="707" y="440" width="120" height="80" as="geometry"/>
                </mxCell>
                <mxCell id="47" value="" style="endArrow=none;html=1;fontColor=#FFFFFF;" edge="1" parent="1">
                    <mxGeometry width="50" height="50" relative="1" as="geometry">
                        <mxPoint x="60" y="790" as="sourcePoint"/>
                        <mxPoint x="770" y="790" as="targetPoint"/>
                    </mxGeometry>
                </mxCell>
                <mxCell id="49" value="" style="endArrow=none;html=1;fontColor=#FFFFFF;entryX=0.517;entryY=0.863;entryDx=0;entryDy=0;entryPerimeter=0;" edge="1" parent="1" target="41">
                    <mxGeometry width="50" height="50" relative="1" as="geometry">
                        <mxPoint x="60" y="790" as="sourcePoint"/>
                        <mxPoint x="110" y="740" as="targetPoint"/>
                    </mxGeometry>
                </mxCell>
                <mxCell id="50" value="" style="endArrow=none;html=1;fontColor=#FFFFFF;entryX=0.517;entryY=0.913;entryDx=0;entryDy=0;entryPerimeter=0;" edge="1" parent="1" target="42">
                    <mxGeometry width="50" height="50" relative="1" as="geometry">
                        <mxPoint x="240" y="790" as="sourcePoint"/>
                        <mxPoint x="290" y="740" as="targetPoint"/>
                    </mxGeometry>
                </mxCell>
                <mxCell id="51" value="" style="endArrow=none;html=1;fontColor=#FFFFFF;entryX=0.492;entryY=0.938;entryDx=0;entryDy=0;entryPerimeter=0;" edge="1" parent="1" target="43">
                    <mxGeometry width="50" height="50" relative="1" as="geometry">
                        <mxPoint x="460" y="790" as="sourcePoint"/>
                        <mxPoint x="510" y="740" as="targetPoint"/>
                    </mxGeometry>
                </mxCell>
                <mxCell id="52" value="" style="endArrow=none;html=1;fontColor=#FFFFFF;entryX=0.517;entryY=0.863;entryDx=0;entryDy=0;entryPerimeter=0;" edge="1" parent="1" target="44">
                    <mxGeometry width="50" height="50" relative="1" as="geometry">
                        <mxPoint x="660" y="790" as="sourcePoint"/>
                        <mxPoint x="710" y="610" as="targetPoint"/>
                    </mxGeometry>
                </mxCell>
                <mxCell id="53" value="" style="endArrow=none;html=1;fontColor=#FFFFFF;entryX=0.525;entryY=0.888;entryDx=0;entryDy=0;entryPerimeter=0;" edge="1" parent="1" target="46">
                    <mxGeometry width="50" height="50" relative="1" as="geometry">
                        <mxPoint x="770" y="790" as="sourcePoint"/>
                        <mxPoint x="820" y="740" as="targetPoint"/>
                    </mxGeometry>
                </mxCell>
                <mxCell id="55" value="FIN" style="ellipse;whiteSpace=wrap;html=1;fontColor=#ffffff;fillColor=#a0522d;strokeColor=#6D1F00;" vertex="1" parent="1">
                    <mxGeometry x="380" y="850" width="120" height="80" as="geometry"/>
                </mxCell>
                <mxCell id="56" value="" style="endArrow=classic;html=1;fontColor=#FFFFFF;entryX=0.5;entryY=0;entryDx=0;entryDy=0;" edge="1" parent="1" target="55">
                    <mxGeometry width="50" height="50" relative="1" as="geometry">
                        <mxPoint x="440" y="790" as="sourcePoint"/>
                        <mxPoint x="390" y="810" as="targetPoint"/>
                    </mxGeometry>
                </mxCell>
            </root>
        </mxGraphModel>
    </diagram>
</mxfile>